<svg width="359" height="78" viewBox="0 0 359 78" fill="none" xmlns="http://www.w3.org/2000/svg">
<mask id="path-1-outside-1_5_644" maskUnits="userSpaceOnUse" x="-0.389282" y="-0.472" width="360" height="79" fill="black">
<rect fill="white" x="-0.389282" y="-0.472" width="360" height="79"/>
<path d="M16.784 68.528V61.136H24.176V24.176H1.99997V9.39199H9.39197V2H68.528V24.176H53.744V16.784H46.352V61.136H53.744V68.528H16.784ZM68.5482 68.528V61.136H75.9402V9.39199H68.5482V2H105.508V9.39199H98.1162V61.136H105.508V68.528H68.5482ZM105.486 61.136V16.784H112.878V9.39199H120.27V2H157.23V9.39199H164.622V16.784H157.23V24.176H142.446V9.39199H135.054V16.784H127.662V53.744H135.054V61.136H142.446V53.744H164.622V61.136H157.23V68.528H149.838V75.92H127.662V68.528H112.878V61.136H105.486ZM194.21 53.744V61.136H201.602V53.744H194.21ZM201.602 16.784V9.39199H194.21V16.784H201.602ZM164.642 68.528V61.136H172.034V9.39199H164.642V2H231.17V9.39199H223.778V16.784H216.386V24.176H208.994V38.96H216.386V53.744H223.778V61.136H231.17V68.528H164.642ZM231.204 53.744V38.96H260.772V53.744H231.204ZM260.736 68.528V61.136H268.128V9.39199H260.736V2H297.696V9.39199H290.304V61.136H297.696V68.528H260.736ZM305.065 68.528V61.136H312.457V24.176H290.281V9.39199H297.673V2H356.809V24.176H342.025V16.784H334.633V61.136H342.025V68.528H305.065Z"/>
</mask>
<path d="M16.784 68.528H14.784V70.528H16.784V68.528ZM16.784 61.136V59.136H14.784V61.136H16.784ZM24.176 61.136V63.136H26.176V61.136H24.176ZM24.176 24.176H26.176V22.176H24.176V24.176ZM1.99997 24.176H-3.24249e-05V26.176H1.99997V24.176ZM1.99997 9.39199V7.39199H-3.24249e-05V9.39199H1.99997ZM9.39197 9.39199V11.392H11.392V9.39199H9.39197ZM9.39197 2V0H7.39197V2H9.39197ZM68.528 2H70.528V0H68.528V2ZM68.528 24.176V26.176H70.528V24.176H68.528ZM53.744 24.176H51.744V26.176H53.744V24.176ZM53.744 16.784H55.744V14.784H53.744V16.784ZM46.352 16.784V14.784H44.352V16.784H46.352ZM46.352 61.136H44.352V63.136H46.352V61.136ZM53.744 61.136H55.744V59.136H53.744V61.136ZM53.744 68.528V70.528H55.744V68.528H53.744ZM16.784 68.528H18.784V61.136H16.784H14.784V68.528H16.784ZM16.784 61.136V63.136H24.176V61.136V59.136H16.784V61.136ZM24.176 61.136H26.176V24.176H24.176H22.176V61.136H24.176ZM24.176 24.176V22.176H1.99997V24.176V26.176H24.176V24.176ZM1.99997 24.176H3.99997V9.39199H1.99997H-3.24249e-05V24.176H1.99997ZM1.99997 9.39199V11.392H9.39197V9.39199V7.39199H1.99997V9.39199ZM9.39197 9.39199H11.392V2H9.39197H7.39197V9.39199H9.39197ZM9.39197 2V4H68.528V2V0H9.39197V2ZM68.528 2H66.528V24.176H68.528H70.528V2H68.528ZM68.528 24.176V22.176H53.744V24.176V26.176H68.528V24.176ZM53.744 24.176H55.744V16.784H53.744H51.744V24.176H53.744ZM53.744 16.784V14.784H46.352V16.784V18.784H53.744V16.784ZM46.352 16.784H44.352V61.136H46.352H48.352V16.784H46.352ZM46.352 61.136V63.136H53.744V61.136V59.136H46.352V61.136ZM53.744 61.136H51.744V68.528H53.744H55.744V61.136H53.744ZM53.744 68.528V66.528H16.784V68.528V70.528H53.744V68.528ZM68.5482 68.528H66.5482V70.528H68.5482V68.528ZM68.5482 61.136V59.136H66.5482V61.136H68.5482ZM75.9402 61.136V63.136H77.9402V61.136H75.9402ZM75.9402 9.39199H77.9402V7.39199H75.9402V9.39199ZM68.5482 9.39199H66.5482V11.392H68.5482V9.39199ZM68.5482 2V0H66.5482V2H68.5482ZM105.508 2H107.508V0H105.508V2ZM105.508 9.39199V11.392H107.508V9.39199H105.508ZM98.1162 9.39199V7.39199H96.1162V9.39199H98.1162ZM98.1162 61.136H96.1162V63.136H98.1162V61.136ZM105.508 61.136H107.508V59.136H105.508V61.136ZM105.508 68.528V70.528H107.508V68.528H105.508ZM68.5482 68.528H70.5482V61.136H68.5482H66.5482V68.528H68.5482ZM68.5482 61.136V63.136H75.9402V61.136V59.136H68.5482V61.136ZM75.9402 61.136H77.9402V9.39199H75.9402H73.9402V61.136H75.9402ZM75.9402 9.39199V7.39199H68.5482V9.39199V11.392H75.9402V9.39199ZM68.5482 9.39199H70.5482V2H68.5482H66.5482V9.39199H68.5482ZM68.5482 2V4H105.508V2V0H68.5482V2ZM105.508 2H103.508V9.39199H105.508H107.508V2H105.508ZM105.508 9.39199V7.39199H98.1162V9.39199V11.392H105.508V9.39199ZM98.1162 9.39199H96.1162V61.136H98.1162H100.116V9.39199H98.1162ZM98.1162 61.136V63.136H105.508V61.136V59.136H98.1162V61.136ZM105.508 61.136H103.508V68.528H105.508H107.508V61.136H105.508ZM105.508 68.528V66.528H68.5482V68.528V70.528H105.508V68.528ZM105.486 61.136H103.486V63.136H105.486V61.136ZM105.486 16.784V14.784H103.486V16.784H105.486ZM112.878 16.784V18.784H114.878V16.784H112.878ZM112.878 9.39199V7.39199H110.878V9.39199H112.878ZM120.27 9.39199V11.392H122.27V9.39199H120.27ZM120.27 2V0H118.27V2H120.27ZM157.23 2H159.23V0H157.23V2ZM157.23 9.39199H155.23V11.392H157.23V9.39199ZM164.622 9.39199H166.622V7.39199H164.622V9.39199ZM164.622 16.784V18.784H166.622V16.784H164.622ZM157.23 16.784V14.784H155.23V16.784H157.23ZM157.23 24.176V26.176H159.23V24.176H157.23ZM142.446 24.176H140.446V26.176H142.446V24.176ZM142.446 9.39199H144.446V7.39199H142.446V9.39199ZM135.054 9.39199V7.39199H133.054V9.39199H135.054ZM135.054 16.784V18.784H137.054V16.784H135.054ZM127.662 16.784V14.784H125.662V16.784H127.662ZM127.662 53.744H125.662V55.744H127.662V53.744ZM135.054 53.744H137.054V51.744H135.054V53.744ZM135.054 61.136H133.054V63.136H135.054V61.136ZM142.446 61.136V63.136H144.446V61.136H142.446ZM142.446 53.744V51.744H140.446V53.744H142.446ZM164.622 53.744H166.622V51.744H164.622V53.744ZM164.622 61.136V63.136H166.622V61.136H164.622ZM157.23 61.136V59.136H155.23V61.136H157.23ZM157.23 68.528V70.528H159.23V68.528H157.23ZM149.838 68.528V66.528H147.838V68.528H149.838ZM149.838 75.92V77.92H151.838V75.92H149.838ZM127.662 75.92H125.662V77.92H127.662V75.92ZM127.662 68.528H129.662V66.528H127.662V68.528ZM112.878 68.528H110.878V70.528H112.878V68.528ZM112.878 61.136H114.878V59.136H112.878V61.136ZM105.486 61.136H107.486V16.784H105.486H103.486V61.136H105.486ZM105.486 16.784V18.784H112.878V16.784V14.784H105.486V16.784ZM112.878 16.784H114.878V9.39199H112.878H110.878V16.784H112.878ZM112.878 9.39199V11.392H120.27V9.39199V7.39199H112.878V9.39199ZM120.27 9.39199H122.27V2H120.27H118.27V9.39199H120.27ZM120.27 2V4H157.23V2V0H120.27V2ZM157.23 2H155.23V9.39199H157.23H159.23V2H157.23ZM157.23 9.39199V11.392H164.622V9.39199V7.39199H157.23V9.39199ZM164.622 9.39199H162.622V16.784H164.622H166.622V9.39199H164.622ZM164.622 16.784V14.784H157.23V16.784V18.784H164.622V16.784ZM157.23 16.784H155.23V24.176H157.23H159.23V16.784H157.23ZM157.23 24.176V22.176H142.446V24.176V26.176H157.23V24.176ZM142.446 24.176H144.446V9.39199H142.446H140.446V24.176H142.446ZM142.446 9.39199V7.39199H135.054V9.39199V11.392H142.446V9.39199ZM135.054 9.39199H133.054V16.784H135.054H137.054V9.39199H135.054ZM135.054 16.784V14.784H127.662V16.784V18.784H135.054V16.784ZM127.662 16.784H125.662V53.744H127.662H129.662V16.784H127.662ZM127.662 53.744V55.744H135.054V53.744V51.744H127.662V53.744ZM135.054 53.744H133.054V61.136H135.054H137.054V53.744H135.054ZM135.054 61.136V63.136H142.446V61.136V59.136H135.054V61.136ZM142.446 61.136H144.446V53.744H142.446H140.446V61.136H142.446ZM142.446 53.744V55.744H164.622V53.744V51.744H142.446V53.744ZM164.622 53.744H162.622V61.136H164.622H166.622V53.744H164.622ZM164.622 61.136V59.136H157.23V61.136V63.136H164.622V61.136ZM157.23 61.136H155.23V68.528H157.23H159.23V61.136H157.23ZM157.23 68.528V66.528H149.838V68.528V70.528H157.23V68.528ZM149.838 68.528H147.838V75.92H149.838H151.838V68.528H149.838ZM149.838 75.92V73.92H127.662V75.92V77.92H149.838V75.92ZM127.662 75.92H129.662V68.528H127.662H125.662V75.92H127.662ZM127.662 68.528V66.528H112.878V68.528V70.528H127.662V68.528ZM112.878 68.528H114.878V61.136H112.878H110.878V68.528H112.878ZM112.878 61.136V59.136H105.486V61.136V63.136H112.878V61.136ZM194.21 53.744V51.744H192.21V53.744H194.21ZM194.21 61.136H192.21V63.136H194.21V61.136ZM201.602 61.136V63.136H203.602V61.136H201.602ZM201.602 53.744H203.602V51.744H201.602V53.744ZM201.602 16.784V18.784H203.602V16.784H201.602ZM201.602 9.39199H203.602V7.39199H201.602V9.39199ZM194.21 9.39199V7.39199H192.21V9.39199H194.21ZM194.21 16.784H192.21V18.784H194.21V16.784ZM164.642 68.528H162.642V70.528H164.642V68.528ZM164.642 61.136V59.136H162.642V61.136H164.642ZM172.034 61.136V63.136H174.034V61.136H172.034ZM172.034 9.39199H174.034V7.39199H172.034V9.39199ZM164.642 9.39199H162.642V11.392H164.642V9.39199ZM164.642 2V0H162.642V2H164.642ZM231.17 2H233.17V0H231.17V2ZM231.17 9.39199V11.392H233.17V9.39199H231.17ZM223.778 9.39199V7.39199H221.778V9.39199H223.778ZM223.778 16.784V18.784H225.778V16.784H223.778ZM216.386 16.784V14.784H214.386V16.784H216.386ZM216.386 24.176V26.176H218.386V24.176H216.386ZM208.994 24.176V22.176H206.994V24.176H208.994ZM208.994 38.96H206.994V40.96H208.994V38.96ZM216.386 38.96H218.386V36.96H216.386V38.96ZM216.386 53.744H214.386V55.744H216.386V53.744ZM223.778 53.744H225.778V51.744H223.778V53.744ZM223.778 61.136H221.778V63.136H223.778V61.136ZM231.17 61.136H233.17V59.136H231.17V61.136ZM231.17 68.528V70.528H233.17V68.528H231.17ZM194.21 53.744H192.21V61.136H194.21H196.21V53.744H194.21ZM194.21 61.136V63.136H201.602V61.136V59.136H194.21V61.136ZM201.602 61.136H203.602V53.744H201.602H199.602V61.136H201.602ZM201.602 53.744V51.744H194.21V53.744V55.744H201.602V53.744ZM201.602 16.784H203.602V9.39199H201.602H199.602V16.784H201.602ZM201.602 9.39199V7.39199H194.21V9.39199V11.392H201.602V9.39199ZM194.21 9.39199H192.21V16.784H194.21H196.21V9.39199H194.21ZM194.21 16.784V18.784H201.602V16.784V14.784H194.21V16.784ZM164.642 68.528H166.642V61.136H164.642H162.642V68.528H164.642ZM164.642 61.136V63.136H172.034V61.136V59.136H164.642V61.136ZM172.034 61.136H174.034V9.39199H172.034H170.034V61.136H172.034ZM172.034 9.39199V7.39199H164.642V9.39199V11.392H172.034V9.39199ZM164.642 9.39199H166.642V2H164.642H162.642V9.39199H164.642ZM164.642 2V4H231.17V2V0H164.642V2ZM231.17 2H229.17V9.39199H231.17H233.17V2H231.17ZM231.17 9.39199V7.39199H223.778V9.39199V11.392H231.17V9.39199ZM223.778 9.39199H221.778V16.784H223.778H225.778V9.39199H223.778ZM223.778 16.784V14.784H216.386V16.784V18.784H223.778V16.784ZM216.386 16.784H214.386V24.176H216.386H218.386V16.784H216.386ZM216.386 24.176V22.176H208.994V24.176V26.176H216.386V24.176ZM208.994 24.176H206.994V38.96H208.994H210.994V24.176H208.994ZM208.994 38.96V40.96H216.386V38.96V36.96H208.994V38.96ZM216.386 38.96H214.386V53.744H216.386H218.386V38.96H216.386ZM216.386 53.744V55.744H223.778V53.744V51.744H216.386V53.744ZM223.778 53.744H221.778V61.136H223.778H225.778V53.744H223.778ZM223.778 61.136V63.136H231.17V61.136V59.136H223.778V61.136ZM231.17 61.136H229.17V68.528H231.17H233.17V61.136H231.17ZM231.17 68.528V66.528H164.642V68.528V70.528H231.17V68.528ZM231.204 53.744H229.204V55.744H231.204V53.744ZM231.204 38.96V36.96H229.204V38.96H231.204ZM260.772 38.96H262.772V36.96H260.772V38.96ZM260.772 53.744V55.744H262.772V53.744H260.772ZM231.204 53.744H233.204V38.96H231.204H229.204V53.744H231.204ZM231.204 38.96V40.96H260.772V38.96V36.96H231.204V38.96ZM260.772 38.96H258.772V53.744H260.772H262.772V38.96H260.772ZM260.772 53.744V51.744H231.204V53.744V55.744H260.772V53.744ZM260.736 68.528H258.736V70.528H260.736V68.528ZM260.736 61.136V59.136H258.736V61.136H260.736ZM268.128 61.136V63.136H270.128V61.136H268.128ZM268.128 9.39199H270.128V7.39199H268.128V9.39199ZM260.736 9.39199H258.736V11.392H260.736V9.39199ZM260.736 2V0H258.736V2H260.736ZM297.696 2H299.696V0H297.696V2ZM297.696 9.39199V11.392H299.696V9.39199H297.696ZM290.304 9.39199V7.39199H288.304V9.39199H290.304ZM290.304 61.136H288.304V63.136H290.304V61.136ZM297.696 61.136H299.696V59.136H297.696V61.136ZM297.696 68.528V70.528H299.696V68.528H297.696ZM260.736 68.528H262.736V61.136H260.736H258.736V68.528H260.736ZM260.736 61.136V63.136H268.128V61.136V59.136H260.736V61.136ZM268.128 61.136H270.128V9.39199H268.128H266.128V61.136H268.128ZM268.128 9.39199V7.39199H260.736V9.39199V11.392H268.128V9.39199ZM260.736 9.39199H262.736V2H260.736H258.736V9.39199H260.736ZM260.736 2V4H297.696V2V0H260.736V2ZM297.696 2H295.696V9.39199H297.696H299.696V2H297.696ZM297.696 9.39199V7.39199H290.304V9.39199V11.392H297.696V9.39199ZM290.304 9.39199H288.304V61.136H290.304H292.304V9.39199H290.304ZM290.304 61.136V63.136H297.696V61.136V59.136H290.304V61.136ZM297.696 61.136H295.696V68.528H297.696H299.696V61.136H297.696ZM297.696 68.528V66.528H260.736V68.528V70.528H297.696V68.528ZM305.065 68.528H303.065V70.528H305.065V68.528ZM305.065 61.136V59.136H303.065V61.136H305.065ZM312.457 61.136V63.136H314.457V61.136H312.457ZM312.457 24.176H314.457V22.176H312.457V24.176ZM290.281 24.176H288.281V26.176H290.281V24.176ZM290.281 9.39199V7.39199H288.281V9.39199H290.281ZM297.673 9.39199V11.392H299.673V9.39199H297.673ZM297.673 2V0H295.673V2H297.673ZM356.809 2H358.809V0H356.809V2ZM356.809 24.176V26.176H358.809V24.176H356.809ZM342.025 24.176H340.025V26.176H342.025V24.176ZM342.025 16.784H344.025V14.784H342.025V16.784ZM334.633 16.784V14.784H332.633V16.784H334.633ZM334.633 61.136H332.633V63.136H334.633V61.136ZM342.025 61.136H344.025V59.136H342.025V61.136ZM342.025 68.528V70.528H344.025V68.528H342.025ZM305.065 68.528H307.065V61.136H305.065H303.065V68.528H305.065ZM305.065 61.136V63.136H312.457V61.136V59.136H305.065V61.136ZM312.457 61.136H314.457V24.176H312.457H310.457V61.136H312.457ZM312.457 24.176V22.176H290.281V24.176V26.176H312.457V24.176ZM290.281 24.176H292.281V9.39199H290.281H288.281V24.176H290.281ZM290.281 9.39199V11.392H297.673V9.39199V7.39199H290.281V9.39199ZM297.673 9.39199H299.673V2H297.673H295.673V9.39199H297.673ZM297.673 2V4H356.809V2V0H297.673V2ZM356.809 2H354.809V24.176H356.809H358.809V2H356.809ZM356.809 24.176V22.176H342.025V24.176V26.176H356.809V24.176ZM342.025 24.176H344.025V16.784H342.025H340.025V24.176H342.025ZM342.025 16.784V14.784H334.633V16.784V18.784H342.025V16.784ZM334.633 16.784H332.633V61.136H334.633H336.633V16.784H334.633ZM334.633 61.136V63.136H342.025V61.136V59.136H334.633V61.136ZM342.025 61.136H340.025V68.528H342.025H344.025V61.136H342.025ZM342.025 68.528V66.528H305.065V68.528V70.528H342.025V68.528Z" fill="#FFF9F6" mask="url(#path-1-outside-1_5_644)"/>
</svg>
